<?xml version="1.0" standalone="no"?>
<!DOCTYPE svg PUBLIC "-//W3C//DTD SVG 1.1//EN" "http://www.w3.org/Graphics/SVG/1.1/DTD/svg11.dtd">
<svg xmlns="http://www.w3.org/2000/svg" id="Layer_2" data-name="Layer 2" viewBox="0 0 979.57 380.22" width="979.5700073242188" height="380.2200012207031">
  <defs>
    <style>
      .cls-1 {
        fill: #fbd8d9;
      }

      .cls-2 {
        fill: #f9eff0;
      }

      .cls-3 {
        fill: #f2a7ad;
      }
    </style>
  </defs>
  <g id="Layer_5" data-name="Layer 5">
    <g>
      <path class="cls-3" d="M192.59,185.6c21.97,64.95,63.01,114.88,107.12,137.13,21.66-44.13,24.05-108.51,2.09-173.47-21.97-64.95-63.01-114.88-107.12-137.13-21.66,44.13-24.05,108.51-2.09,173.47Z"/>
      <path class="cls-1" d="M165.67,174.9c45.49,59.11,102.7,98.1,151.97,108.59,2.79-49.91-20.05-114.93-65.53-174.04C206.62,50.35,149.41,11.36,100.14,.87c-2.79,49.91,20.05,114.93,65.53,174.04Z"/>
      <path class="cls-1" d="M147.88,201.23c40.86,41.43,90.67,64.44,132.53,65.25,.1-41.52-22.01-91.42-62.87-132.84-40.86-41.43-90.67-64.44-132.53-65.25-.1,41.52,22.01,91.42,62.87,132.84Z"/>
      <path class="cls-1" d="M185.76,274.82c54.2,21.65,109.13,22.87,147.79,6.93-16.73-38.06-57.19-74.94-111.39-96.59-54.2-21.65-109.13-22.87-147.79-6.93,16.73,38.06,57.19,74.94,111.39,96.59Z"/>
      <path class="cls-3" d="M786.98,184.74c-21.97,64.95-63.01,114.88-107.12,137.13-21.66-44.13-24.05-108.51-2.09-173.47,21.97-64.95,63.01-114.88,107.12-137.13,21.66,44.13,24.05,108.51,2.09,173.47Z"/>
      <path class="cls-1" d="M813.89,174.04c-45.49,59.11-102.7,98.1-151.97,108.59-2.79-49.91,20.05-114.93,65.53-174.04C772.94,49.49,830.16,10.49,879.43,0c2.79,49.91-20.05,114.93-65.53,174.04Z"/>
      <path class="cls-1" d="M831.69,200.37c-40.86,41.43-90.67,64.44-132.53,65.25-.1-41.52,22.01-91.42,62.87-132.84,40.86-41.43,90.67-64.44,132.53-65.25,.1,41.52-22.01,91.42-62.87,132.84Z"/>
      <path class="cls-1" d="M793.81,273.96c-54.2,21.65-109.13,22.87-147.79,6.93,16.73-38.06,57.19-74.94,111.39-96.59,54.2-21.65,109.13-22.87,147.79-6.93-16.73,38.06-57.19,74.94-111.39,96.59Z"/>
      <g>
        <circle class="cls-1" cx="442.22" cy="85.68" r="21.83"/>
        <circle class="cls-1" cx="458.25" cy="146.54" r="4.79"/>
        <circle class="cls-1" cx="456.93" cy="152.14" r="1.79"/>
        <path class="cls-1" d="M456.93,153.92s1.98,.29,5.18-4.54l-8.12-.66s.94,2.2,1.23,3.92l1.71,1.28Z"/>
        <path class="cls-1" d="M458.25,106.96s-2.54,14.19,4.6,38.23l-8.87,3.53s-13.37-34.05-27.29-47.71,27.29-2.22,27.29-2.22l4.27,8.16Z"/>
      </g>
      <path class="cls-1" d="M482.13,305.36c0-38.58-31.27-69.85-69.85-69.85-15.23,0-29.3,4.89-40.78,13.16l104.86,84.49c3.7-8.52,5.76-17.91,5.76-27.8Z"/>
      <path class="cls-1" d="M371.5,248.67l4.62-3.06c-142.91-77.85-289.52,17.11-289.52,17.11,0,0-13.57,2.48-43.34-5.63C21.5,251.17,0,237.42,0,237.42c36,59.48,101.22,91.57,101.22,91.57,109.89,13.87,193.35,16.9,253.34,15.71-7.65-11.2-12.13-24.74-12.13-39.33,0-23.35,11.47-44.01,29.07-56.69Z"/>
      <polygon class="cls-1" points="476.36 333.16 476.36 333.17 476.37 333.17 476.36 333.16"/>
      <path class="cls-1" d="M371.5,248.67c-17.6,12.68-29.07,33.34-29.07,56.69,0,14.59,4.48,28.13,12.13,39.33,83.56-1.65,121.55-11.46,121.8-11.53,0,0,0,0,0,0l-104.86-84.49Z"/>
      <path class="cls-1" d="M401.89,204.55c-11.13-10.46-19.46-24.36-22.85-37.57-1.79-6.98-2.12-12.32-2.12-20.45,0-32.51,13.4-58.86,29.93-58.86,7.11,0,13.06,3.39,18.19,11.53l36.85-23.14c-13.07-23.76-31.51-37.4-52.91-37.4-39.38,0-71.31,50.81-71.31,113.48,0,49.33,30.69,93.65,58.32,109.28,0,0,69.27-2.33,62.04-8.82-8.28-7.44-38.5-31.47-56.15-48.05Z"/>
      <ellipse class="cls-1" cx="456.14" cy="88.36" rx="10.64" ry="20.14" transform="translate(-5.26 142.94) rotate(-17.71)"/>
      <g>
        <circle class="cls-1" cx="537.35" cy="84.81" r="21.83"/>
        <circle class="cls-1" cx="521.32" cy="145.67" r="4.79"/>
        <circle class="cls-1" cx="522.64" cy="151.27" r="1.79"/>
        <path class="cls-1" d="M522.64,153.06s-1.98,.29-5.18-4.54l8.12-.66s-.94,2.2-1.23,3.92l-1.71,1.28Z"/>
        <path class="cls-1" d="M521.32,106.09s2.54,14.19-4.6,38.23l8.87,3.53s13.37-34.05,27.29-47.71c13.93-13.66-27.29-2.22-27.29-2.22l-4.27,8.16Z"/>
      </g>
      <path class="cls-1" d="M497.44,304.5c0-38.58,31.27-69.85,69.85-69.85,15.23,0,29.3,4.89,40.78,13.16l-104.86,84.49c-3.7-8.52-5.76-17.91-5.76-27.8Z"/>
      <path class="cls-1" d="M608.07,247.81l-4.62-3.06c142.91-77.85,289.52,17.11,289.52,17.11,0,0,13.57,2.48,43.34-5.63,21.77-5.93,43.27-19.68,43.27-19.68-36,59.48-101.22,91.57-101.22,91.57-109.89,13.87-193.35,16.9-253.34,15.71,7.65-11.2,12.13-24.74,12.13-39.33,0-23.35-11.47-44.01-29.07-56.69Z"/>
      <polygon class="cls-1" points="503.2 332.29 503.21 332.3 503.2 332.3 503.2 332.29"/>
      <path class="cls-1" d="M608.07,247.81c17.6,12.68,29.07,33.34,29.07,56.69,0,14.59-4.48,28.13-12.13,39.33-83.56-1.65-121.55-11.46-121.8-11.53,0,0,0,0,0,0l104.86-84.49Z"/>
      <path class="cls-1" d="M577.67,203.68c11.13-10.46,19.46-24.36,22.85-37.57,1.79-6.98,2.12-12.32,2.12-20.45,0-32.51-13.4-58.86-29.93-58.86-7.11,0-13.06,3.39-18.19,11.53l-36.85-23.14c13.07-23.76,31.51-37.4,52.91-37.4,39.38,0,71.31,50.81,71.31,113.48,0,49.33-30.69,93.65-58.32,109.28,0,0-69.27-2.33-62.04-8.82,8.28-7.44,38.5-31.47,56.15-48.05Z"/>
      <ellipse class="cls-1" cx="523.42" cy="87.49" rx="20.14" ry="10.64" transform="translate(280.85 559.5) rotate(-72.29)"/>
      <path class="cls-3" d="M458.46,107.5s-.7-8.41-11.26-8.61c-10.57-.2-5.77,8.8-3.86,15.26,1.91,6.46,15.8,35.51,15.11,39.23,0,0,5.17-4.37,4.59-7.59,0,0-6.5-28.56-4.57-38.29Z"/>
      <path class="cls-3" d="M521.11,106.64s.7-8.41,11.26-8.61,5.77,8.8,3.86,15.26c-1.91,6.46-15.8,35.51-15.11,39.23,0,0-5.17-4.37-4.59-7.59,0,0,6.5-28.56,4.57-38.29Z"/>
      <ellipse class="cls-2" cx="334.82" cy="316.13" rx="30.93" ry="28.45"/>
      <path class="cls-2" d="M342.43,244.25c0,35.17-31,63.69-69.24,63.69s-69.24-28.51-69.24-63.69c0-18.59,8.66-35.33,22.48-46.97,12.32-10.38,28.73-16.72,46.76-16.72,38.24,0,69.24,28.51,69.24,63.69Z"/>
      <path class="cls-2" d="M244.83,186.14s-138.39,36.41-171.78,161.62c0,0,38.87-9.1,86.35-2.84,47.48,6.26,74.35,39.1,133.83,34.92,59.48-4.17,72.53-59.74,72.53-59.74l-56.36-34-64.57-99.97Z"/>
      <ellipse class="cls-2" cx="644.75" cy="315.27" rx="30.93" ry="28.45"/>
      <path class="cls-2" d="M637.13,243.39c0,35.17,31,63.69,69.24,63.69s69.24-28.51,69.24-63.69c0-18.59-8.66-35.33-22.48-46.97-12.32-10.38-28.73-16.72-46.76-16.72-38.24,0-69.24,28.51-69.24,63.69Z"/>
      <path class="cls-2" d="M734.74,185.28s138.39,36.41,171.78,161.62c0,0-38.87-9.1-86.35-2.84-47.48,6.26-74.35,39.1-133.83,34.92-59.48-4.17-72.53-59.74-72.53-59.74l56.36-34,64.57-99.97Z"/>
    </g>
  </g>
</svg>